<svg xmlns="http://www.w3.org/2000/svg" width="1080" height="1120" viewBox="0 0 1080 1120" font-family="Segoe UI, Roboto, Helvetica, Arial, sans-serif"><rect width="1080" height="1120" fill="#FFFFFF"/><defs><marker id="arrow" viewBox="0 0 10 10" refX="9" refY="5" markerWidth="7" markerHeight="7" orient="auto-start-reverse"><path d="M 0 0 L 10 5 L 0 10 z" fill="#546E7A"/></marker></defs><text x="40" y="30" font-size="19" font-weight="600" fill="#263238">user_service</text><text x="40" y="52" font-size="12.5" fill="#607D8B">5 bảng. Redis db0 làm cache-aside: ghi Postgres trước, xoá key sau.</text><polyline points="410,148 410,220" fill="none" stroke="#546E7A" stroke-width="1.6" marker-end="url(#arrow)"/><rect x="375" y="175" width="70" height="17" rx="3" fill="#FFFFFF" opacity="0.92"/><text x="410" y="187" font-size="11" fill="#455A64" text-anchor="middle">gRPC :9004</text><polyline points="410,298 410,334 540,334 540,370" fill="none" stroke="#546E7A" stroke-width="1.6" marker-end="url(#arrow)"/><polyline points="540,448 540,484 410,484 410,520" fill="none" stroke="#546E7A" stroke-width="1.6" marker-end="url(#arrow)"/><polyline points="520,559 820,559" fill="none" stroke="#546E7A" stroke-width="1.6" marker-end="url(#arrow)"/><rect x="638" y="550" width="64" height="17" rx="3" fill="#FFFFFF" opacity="0.92"/><text x="670" y="562" font-size="11" fill="#455A64" text-anchor="middle">đọc / xoá</text><polyline points="300,559 280,559 280,709 260,709" fill="none" stroke="#546E7A" stroke-width="1.6" marker-end="url(#arrow)"/><rect x="236" y="625" width="88" height="17" rx="3" fill="#FFFFFF" opacity="0.92"/><text x="280" y="637" font-size="11" fill="#455A64" text-anchor="middle">nguồn sự thật</text><polyline points="150,748 150,820" fill="none" stroke="#546E7A" stroke-width="1.6" marker-end="url(#arrow)"/><polyline points="260,709 280,709 280,859 300,859" fill="none" stroke="#546E7A" stroke-width="1.6" marker-end="url(#arrow)"/><polyline points="260,709 410,709 410,859 560,859" fill="none" stroke="#546E7A" stroke-width="1.6" marker-end="url(#arrow)"/><polyline points="260,709 540,709 540,859 820,859" fill="none" stroke="#546E7A" stroke-width="1.6" marker-end="url(#arrow)"/><polyline points="930,898 930,970" fill="none" stroke="#546E7A" stroke-width="1.6" marker-end="url(#arrow)"/><rect x="300" y="70" width="220" height="78" rx="8" fill="#E3F2FD" stroke="#1E88E5" stroke-width="1.6"/><text x="410" y="113" font-size="13.0" font-weight="600" fill="#0D47A1" text-anchor="middle">gateway_service</text><rect x="300" y="220" width="220" height="78" rx="8" fill="#E8F5E9" stroke="#43A047" stroke-width="1.6"/><text x="410" y="255" font-size="13.0" font-weight="600" fill="#1B5E20" text-anchor="middle">controller/</text><text x="410" y="271" font-size="12.0" font-weight="400" fill="#1B5E20" text-anchor="middle">21 RPC (15 client + 6 admin)</text><rect x="300" y="370" width="480" height="78" rx="8" fill="#E8F5E9" stroke="#43A047" stroke-width="1.6"/><text x="540" y="397" font-size="13.0" font-weight="600" fill="#1B5E20" text-anchor="middle">biz/</text><text x="540" y="413" font-size="12.0" font-weight="400" fill="#1B5E20" text-anchor="middle">mustBeRole · địa chỉ mặc định duy nhất</text><text x="540" y="429" font-size="12.0" font-weight="400" fill="#1B5E20" text-anchor="middle">· chặn duyệt KYC hai lần</text><rect x="300" y="520" width="220" height="78" rx="8" fill="#E8F5E9" stroke="#43A047" stroke-width="1.6"/><text x="410" y="555" font-size="13.0" font-weight="600" fill="#1B5E20" text-anchor="middle">repo/</text><text x="410" y="571" font-size="12.0" font-weight="400" fill="#1B5E20" text-anchor="middle">cache-aside + invalidate</text><rect x="820" y="520" width="220" height="78" rx="8" fill="#FFF3E0" stroke="#FB8C00" stroke-width="1.6"/><text x="930" y="555" font-size="13.0" font-weight="600" fill="#E65100" text-anchor="middle">Redis db0</text><text x="930" y="571" font-size="12.0" font-weight="400" fill="#E65100" text-anchor="middle">prefix &quot;user&quot;</text><rect x="40" y="670" width="220" height="78" rx="8" fill="#FFF3E0" stroke="#FB8C00" stroke-width="1.6"/><text x="150" y="713" font-size="13.0" font-weight="600" fill="#E65100" text-anchor="middle">Postgres master + slave</text><rect x="40" y="820" width="220" height="78" rx="8" fill="#FFFDE7" stroke="#FBC02D" stroke-width="1.6"/><text x="150" y="863" font-size="13.0" font-weight="600" fill="#795548" text-anchor="middle">users</text><rect x="300" y="820" width="220" height="78" rx="8" fill="#FFFDE7" stroke="#FBC02D" stroke-width="1.6"/><text x="410" y="855" font-size="13.0" font-weight="600" fill="#795548" text-anchor="middle">driver_profiles</text><text x="410" y="871" font-size="12.0" font-weight="400" fill="#795548" text-anchor="middle">driver ⟷ KYC</text><rect x="560" y="820" width="220" height="78" rx="8" fill="#FFFDE7" stroke="#FBC02D" stroke-width="1.6"/><text x="670" y="863" font-size="13.0" font-weight="600" fill="#795548" text-anchor="middle">shipper_profiles</text><rect x="820" y="820" width="220" height="78" rx="8" fill="#FFFDE7" stroke="#FBC02D" stroke-width="1.6"/><text x="930" y="855" font-size="13.0" font-weight="600" fill="#795548" text-anchor="middle">addresses</text><text x="930" y="871" font-size="12.0" font-weight="400" fill="#795548" text-anchor="middle">sổ địa chỉ + toạ độ</text><rect x="820" y="970" width="220" height="78" rx="8" fill="#FFFDE7" stroke="#FBC02D" stroke-width="1.6"/><text x="930" y="1005" font-size="13.0" font-weight="600" fill="#795548" text-anchor="middle">user_devices</text><text x="930" y="1021" font-size="12.0" font-weight="400" fill="#795548" text-anchor="middle">push token</text></svg>