<svg xmlns="http://www.w3.org/2000/svg" width="1080" height="820" viewBox="0 0 1080 820" font-family="Segoe UI, Roboto, Helvetica, Arial, sans-serif"><rect width="1080" height="820" fill="#FFFFFF"/><defs><marker id="arrow" viewBox="0 0 10 10" refX="9" refY="5" markerWidth="7" markerHeight="7" orient="auto-start-reverse"><path d="M 0 0 L 10 5 L 0 10 z" fill="#546E7A"/></marker></defs><text x="40" y="30" font-size="19" font-weight="600" fill="#263238">wallet_service</text><text x="40" y="52" font-size="12.5" fill="#607D8B">CHƯA có trong docker-compose. Tiền bạc nên dùng Unit of Work để mọi bút toán vào cùng một transaction.</text><polyline points="150,148 150,184 280,184 280,220" fill="none" stroke="#546E7A" stroke-width="1.6" marker-end="url(#arrow)"/><rect x="180" y="175" width="70" height="17" rx="3" fill="#FFFFFF" opacity="0.92"/><text x="215" y="187" font-size="11" fill="#455A64" text-anchor="middle">gRPC :9007</text><polyline points="670,148 670,220" fill="none" stroke="#546E7A" stroke-width="1.6" stroke-dasharray="6 4" marker-end="url(#arrow)"/><polyline points="520,259 410,259 410,409 300,409" fill="none" stroke="#546E7A" stroke-width="1.6" marker-end="url(#arrow)"/><polyline points="670,298 670,334 540,334 540,370" fill="none" stroke="#546E7A" stroke-width="1.6" marker-end="url(#arrow)"/><rect x="567" y="325" width="76" height="17" rx="3" fill="#FFFFFF" opacity="0.92"/><text x="605" y="337" font-size="11" fill="#455A64" text-anchor="middle">HoldDeposit</text><polyline points="780,409 820,409" fill="none" stroke="#546E7A" stroke-width="1.6" marker-end="url(#arrow)"/><polyline points="540,448 540,484 410,484 410,520" fill="none" stroke="#546E7A" stroke-width="1.6" marker-end="url(#arrow)"/><polyline points="300,559 280,559 280,709 260,709" fill="none" stroke="#546E7A" stroke-width="1.6" marker-end="url(#arrow)"/><polyline points="520,559 540,559 540,709 560,709" fill="none" stroke="#546E7A" stroke-width="1.6" marker-end="url(#arrow)"/><rect x="478" y="625" width="124" height="17" rx="3" fill="#FFFFFF" opacity="0.92"/><text x="540" y="637" font-size="11" fill="#455A64" text-anchor="middle">đồng bộ sau khi ghi</text><polyline points="670,298 670,484 930,484 930,670" fill="none" stroke="#546E7A" stroke-width="1.6" marker-end="url(#arrow)"/><rect x="40" y="70" width="220" height="78" rx="8" fill="#E8F5E9" stroke="#43A047" stroke-width="1.6"/><text x="150" y="113" font-size="13.0" font-weight="600" fill="#1B5E20" text-anchor="middle">matching_service</text><rect x="560" y="70" width="220" height="78" rx="8" fill="#F3E5F5" stroke="#8E24AA" stroke-width="1.6"/><text x="670" y="105" font-size="13.0" font-weight="600" fill="#4A148C" text-anchor="middle">Kafka</text><text x="670" y="121" font-size="12.0" font-weight="400" fill="#4A148C" text-anchor="middle">wallet.hold_deposit</text><rect x="40" y="220" width="480" height="78" rx="8" fill="#E8F5E9" stroke="#43A047" stroke-width="1.6"/><text x="280" y="247" font-size="13.0" font-weight="600" fill="#1B5E20" text-anchor="middle">controller/</text><text x="280" y="263" font-size="12.0" font-weight="400" fill="#1B5E20" text-anchor="middle">GetBalance · Deposit · Transfer</text><text x="280" y="279" font-size="12.0" font-weight="400" fill="#1B5E20" text-anchor="middle">SearchWallets · SearchTransactions</text><rect x="560" y="220" width="220" height="78" rx="8" fill="#E8F5E9" stroke="#43A047" stroke-width="1.6"/><text x="670" y="255" font-size="13.0" font-weight="600" fill="#1B5E20" text-anchor="middle">broker/kafka</text><text x="670" y="271" font-size="12.0" font-weight="400" fill="#1B5E20" text-anchor="middle">consumer</text><rect x="300" y="370" width="480" height="78" rx="8" fill="#E8F5E9" stroke="#43A047" stroke-width="1.6"/><text x="540" y="397" font-size="13.0" font-weight="600" fill="#1B5E20" text-anchor="middle">biz/</text><text x="540" y="413" font-size="12.0" font-weight="400" fill="#1B5E20" text-anchor="middle">HoldDeposit · ReleaseAndPay</text><text x="540" y="429" font-size="12.0" font-weight="400" fill="#1B5E20" text-anchor="middle">TransferMoney</text><rect x="820" y="370" width="220" height="78" rx="8" fill="#FFFDE7" stroke="#FBC02D" stroke-width="1.6"/><text x="930" y="405" font-size="13.0" font-weight="600" fill="#795548" text-anchor="middle">UnitOfWork</text><text x="930" y="421" font-size="12.0" font-weight="400" fill="#795548" text-anchor="middle">mọi bút toán cùng 1 transaction</text><rect x="300" y="520" width="220" height="78" rx="8" fill="#E8F5E9" stroke="#43A047" stroke-width="1.6"/><text x="410" y="563" font-size="13.0" font-weight="600" fill="#1B5E20" text-anchor="middle">repository/</text><rect x="40" y="670" width="220" height="78" rx="8" fill="#FFF3E0" stroke="#FB8C00" stroke-width="1.6"/><text x="150" y="705" font-size="13.0" font-weight="600" fill="#E65100" text-anchor="middle">MySQL</text><text x="150" y="721" font-size="12.0" font-weight="400" fill="#E65100" text-anchor="middle">wallets · transactions</text><rect x="560" y="670" width="220" height="78" rx="8" fill="#FFF3E0" stroke="#FB8C00" stroke-width="1.6"/><text x="670" y="705" font-size="13.0" font-weight="600" fill="#E65100" text-anchor="middle">Elasticsearch</text><text x="670" y="721" font-size="12.0" font-weight="400" fill="#E65100" text-anchor="middle">tra cứu giao dịch</text><rect x="820" y="670" width="220" height="78" rx="8" fill="#FFFDE7" stroke="#FBC02D" stroke-width="1.6"/><text x="930" y="705" font-size="13.0" font-weight="600" fill="#795548" text-anchor="middle">processed_messages</text><text x="930" y="721" font-size="12.0" font-weight="400" fill="#795548" text-anchor="middle">chống xử lý trùng Kafka</text></svg>